<svg id="logosandtypes_com" data-name="logosandtypes com" xmlns="http://www.w3.org/2000/svg" viewBox="0 0 150 150"><defs><style>.cls-1{fill:none;}.cls-2{fill:#1f2e60;fill-rule:evenodd;}</style></defs><path class="cls-1" d="M0,0H150V150H0Z" transform="translate(0 0)"/><path class="cls-2" d="M13.15,74.43A61.85,61.85,0,1,1,75,136.28,61.85,61.85,0,0,1,13.15,74.43Zm92.9,6.23,6.35-2.84V75.87H77.88v1.77L84.62,80v40.44c8.73-1.82,17.86-7.13,21.43-10.53ZM80.56,29.06h.19v-2C59.3,25.62,30,41.61,30.42,74.48,30,107.26,59.3,123.24,80.75,121.81v-2h-.19c-14.31,0-22.5-19.29-22.09-45.41C58.06,48.36,66.25,29.06,80.56,29.06Zm26.08,8.61c-3.59-3.91-13.18-9.42-21.57-10.7v2l19.51,26.77h2.06Z" transform="translate(0 0)"/></svg>